# Blender v2.92.0 OBJ File: 'blade-1.blend'
# www.blender.org
mtllib blade-1.mtl
o Cylinder_Cylinder.001
v 0.000000 -0.003119 -0.010000
v 0.010000 -0.003119 0.000000
v -0.000000 -0.003119 0.010000
v -0.010000 -0.003119 -0.000000
v -0.000000 0.016881 -0.008192
v -0.002013 0.034990 -0.006385
v -0.004872 0.054945 -0.004577
v -0.010536 0.074682 -0.002769
v -0.008050 0.075903 0.000000
v -0.000429 0.056043 0.000000
v 0.004337 0.035654 0.000000
v 0.008192 0.016881 0.000000
v -0.010536 0.074682 0.002769
v -0.004872 0.054945 0.004577
v -0.002013 0.034990 0.006385
v -0.000000 0.016881 0.008192
v -0.013022 0.073462 -0.000000
v -0.009316 0.053847 -0.000000
v -0.008363 0.034325 -0.000000
v -0.008192 0.016881 -0.000000
v -0.019297 0.092337 -0.000000
v -0.018971 0.091767 -0.000535
v -0.019452 0.091531 -0.000000
v -0.018971 0.091767 0.000535
v -0.018491 0.092003 0.000000
vt 1.000000 0.600000
vt 1.000000 0.800000
vt 0.750000 0.800000
vt 0.750000 0.600000
vt 0.718751 0.900000
vt 0.437502 1.000000
vt 0.593751 0.900000
vt 0.468751 0.900000
vt 0.500000 0.800000
vt 0.343751 0.900000
vt 0.250000 0.800000
vt 1.000000 0.000000
vt 1.000000 0.200000
vt 0.750000 0.200000
vt 0.750000 0.000000
vt 1.000000 0.400000
vt 0.750000 0.400000
vt 0.250000 0.000000
vt 0.250000 0.200000
vt 0.000000 0.200000
vt 0.000000 0.000000
vt 0.250000 0.400000
vt 0.000000 0.400000
vt 0.250000 0.600000
vt 0.000000 0.600000
vt 0.000000 0.800000
vt 0.500000 0.000000
vt 0.500000 0.200000
vt 0.500000 0.400000
vt 0.500000 0.600000
vt 0.218751 0.900000
vn 0.0105 0.0924 -0.9956
vn 0.0005 0.1054 -0.9944
vn 0.8914 0.4531 0.0000
vn 0.9562 0.2926 0.0000
vn -0.1504 0.3172 -0.9363
vn -0.4802 0.8771 0.0000
vn 0.6747 0.7381 0.0000
vn -0.1504 0.3172 0.9363
vn 0.0005 0.1054 0.9944
vn -0.9934 -0.1141 0.0000
vn -0.9666 -0.2564 0.0000
vn 0.0000 0.0900 -0.9959
vn 0.0211 0.0962 -0.9951
vn 0.9896 0.1436 0.0000
vn 0.9959 0.0900 0.0000
vn -0.0034 0.0943 -0.9955
vn 0.9764 0.2157 0.0000
vn -0.9959 0.0900 0.0000
vn -0.9991 0.0406 0.0000
vn -0.9995 -0.0302 0.0000
vn -0.9932 -0.1164 0.0000
vn 0.0000 0.0900 0.9959
vn 0.0211 0.0962 0.9951
vn -0.0034 0.0943 0.9955
vn 0.0105 0.0924 0.9956
usemtl Grass
s 1
f 7/1/1 8/2/2 9/3/3 10/4/4
f 22/5/5 21/6/6 25/7/7
f 24/8/8 13/9/9 9/3/3 25/7/7
f 23/10/10 17/11/11 13/9/9 24/8/8
f 1/12/12 5/13/13 12/14/14 2/15/15
f 5/13/13 6/16/16 11/17/17 12/14/14
f 6/16/16 7/1/1 10/4/4 11/17/17
f 4/18/18 20/19/19 5/20/13 1/21/12
f 20/19/19 19/22/20 6/23/16 5/20/13
f 19/22/20 18/24/21 7/25/1 6/23/16
f 18/24/21 17/11/11 8/26/2 7/25/1
f 3/27/22 16/28/23 20/19/19 4/18/18
f 16/28/23 15/29/24 19/22/20 20/19/19
f 15/29/24 14/30/25 18/24/21 19/22/20
f 14/30/25 13/9/9 17/11/11 18/24/21
f 2/15/15 12/14/14 16/28/23 3/27/22
f 12/14/14 11/17/17 15/29/24 16/28/23
f 11/17/17 10/4/4 14/30/25 15/29/24
f 10/4/4 9/3/3 13/9/9 14/30/25
f 22/31/5 8/26/2 17/11/11 23/10/10
f 21/6/6 22/31/5 23/10/10
f 21/6/6 23/10/10 24/8/8
f 21/6/6 24/8/8 25/7/7
f 8/2/2 22/5/5 25/7/7 9/3/3
