# Blender v2.92.0 OBJ File: ''
# www.blender.org
mtllib grass-batch-2.mtl
o GrassBatch_Cylinder_Cylinder.001
v -0.062116 0.049960 0.001777
v -0.062370 0.049223 0.002739
v -0.046806 0.044011 0.004546
v -0.046074 0.046136 0.001777
v -0.062624 0.048484 0.001777
v -0.047537 0.041885 0.001777
v -0.062370 0.049223 0.000815
v -0.046806 0.044011 -0.000992
v -0.035452 0.036175 -0.002800
v -0.033157 0.039113 0.001777
v -0.017685 -0.002528 -0.008223
v -0.018655 0.012125 -0.006415
v -0.010709 0.013741 0.001777
v -0.007685 -0.002528 0.001777
v -0.024680 0.026363 -0.004608
v -0.019553 0.029446 0.001777
v -0.027685 -0.002528 0.001777
v -0.026600 0.010509 0.001777
v -0.029807 0.023280 0.001777
v -0.037748 0.033237 0.001777
v -0.017685 -0.002528 0.011777
v -0.018655 0.012125 0.009969
v -0.024680 0.026363 0.008162
v -0.035452 0.036175 0.006354
v -0.062938 0.049424 0.001777
v 0.011331 0.044014 -0.006676
v 0.005667 0.059900 -0.004868
v 0.008153 0.060883 -0.002099
v 0.015774 0.044897 -0.002099
v -0.002768 0.073652 -0.002634
v -0.003094 0.074111 -0.002099
v -0.002288 0.073842 -0.002099
v -0.002768 0.073652 -0.001564
v 0.005667 0.059900 0.000670
v -0.003249 0.073462 -0.002099
v 0.003181 0.058918 -0.002099
v 0.016203 -0.002723 -0.012099
v 0.016203 0.013376 -0.010291
v 0.024395 0.013376 -0.002099
v 0.026203 -0.002723 -0.002099
v 0.014190 0.027952 -0.008484
v 0.020540 0.028486 -0.002099
v 0.006203 -0.002723 -0.002099
v 0.008011 0.013376 -0.002099
v 0.007840 0.027416 -0.002099
v 0.006887 0.043130 -0.002099
v 0.016203 -0.002723 0.007901
v 0.016203 0.013376 0.006093
v 0.014190 0.027952 0.004286
v 0.011331 0.044014 0.002478
v -0.015896 0.049368 -0.014979
v -0.027091 0.063566 -0.013171
v -0.025333 0.065706 -0.010402
v -0.012019 0.051800 -0.010402
v -0.041839 0.075630 -0.010937
v -0.042372 0.076014 -0.010402
v -0.041500 0.076044 -0.010402
v -0.041839 0.075630 -0.009867
v -0.027091 0.063566 -0.007633
v -0.042179 0.075216 -0.010402
v -0.028850 0.061427 -0.010402
v -0.002475 -0.003119 -0.020402
v -0.003620 0.014943 -0.018594
v 0.004531 0.015761 -0.010402
v 0.007525 -0.003119 -0.010402
v -0.006940 0.031308 -0.016787
v -0.001116 0.033924 -0.010402
v -0.012475 -0.003119 -0.010402
v -0.011771 0.014125 -0.010402
v -0.012763 0.028690 -0.010402
v -0.019773 0.046935 -0.010402
v -0.002475 -0.003119 -0.000402
v -0.003620 0.014943 -0.002210
v -0.006940 0.031308 -0.004017
v -0.015896 0.049368 -0.005825
vt 0.750000 1.000000
vt 0.500000 1.000000
vt 0.500000 0.800000
vt 0.750000 0.800000
vt 0.250000 1.000000
vt 0.250000 0.800000
vt 0.000000 1.000000
vt 0.000000 0.800000
vt 1.000000 0.600000
vt 1.000000 0.800000
vt 0.750000 0.600000
vt 1.000000 0.000000
vt 1.000000 0.200000
vt 0.750000 0.200000
vt 0.750000 0.000000
vt 1.000000 0.400000
vt 0.750000 0.400000
vt 0.250000 0.000000
vt 0.250000 0.200000
vt 0.000000 0.200000
vt 0.000000 0.000000
vt 0.250000 0.400000
vt 0.000000 0.400000
vt 0.250000 0.600000
vt 0.000000 0.600000
vt 0.500000 0.000000
vt 0.500000 0.200000
vt 0.500000 0.400000
vt 0.500000 0.600000
vt 0.437501 1.000000
vt 1.000000 1.000000
vt 1.000000 0.600000
vt 1.000000 0.800000
vt 0.750000 0.800000
vt 0.750000 0.600000
vt 0.718751 0.900000
vt 0.437502 1.000000
vt 0.593751 0.900000
vt 0.468751 0.900000
vt 0.500000 0.800000
vt 0.343751 0.900000
vt 0.250000 0.800000
vt 1.000000 0.000000
vt 1.000000 0.200000
vt 0.750000 0.200000
vt 0.750000 0.000000
vt 1.000000 0.400000
vt 0.750000 0.400000
vt 0.250000 0.000000
vt 0.250000 0.200000
vt 0.000000 0.200000
vt 0.000000 0.000000
vt 0.250000 0.400000
vt 0.000000 0.400000
vt 0.250000 0.600000
vt 0.000000 0.600000
vt 0.000000 0.800000
vt 0.500000 0.000000
vt 0.500000 0.200000
vt 0.500000 0.400000
vt 0.500000 0.600000
vt 0.218751 0.900000
vt 1.000000 0.600000
vt 1.000000 0.800000
vt 0.750000 0.800000
vt 0.750000 0.600000
vt 0.718751 0.900000
vt 0.437502 1.000000
vt 0.593751 0.900000
vt 0.468751 0.900000
vt 0.500000 0.800000
vt 0.343751 0.900000
vt 0.250000 0.800000
vt 1.000000 0.000000
vt 1.000000 0.200000
vt 0.750000 0.200000
vt 0.750000 0.000000
vt 1.000000 0.400000
vt 0.750000 0.400000
vt 0.250000 0.000000
vt 0.250000 0.200000
vt 0.000000 0.200000
vt 0.000000 0.000000
vt 0.250000 0.400000
vt 0.000000 0.400000
vt 0.250000 0.600000
vt 0.000000 0.600000
vt 0.000000 0.800000
vt 0.500000 0.000000
vt 0.500000 0.200000
vt 0.500000 0.400000
vt 0.500000 0.600000
vt 0.218751 0.900000
vn -0.1079 0.9942 0.0000
vn -0.4283 0.1441 0.8920
vn -0.0699 0.1120 0.9913
vn 0.3564 0.9343 0.0000
vn -0.6928 -0.7211 0.0000
vn -0.5465 -0.8375 -0.0000
vn -0.4284 0.1441 -0.8920
vn -0.0699 0.1120 -0.9913
vn -0.0844 0.1142 -0.9899
vn 0.5346 0.8451 0.0000
vn 0.0219 0.1292 -0.9914
vn 0.0459 0.1420 -0.9888
vn 0.9431 0.3325 -0.0000
vn 0.9828 0.1846 0.0000
vn 0.0080 0.1739 -0.9847
vn 0.7558 0.6548 0.0000
vn -0.9977 0.0680 0.0000
vn -0.9956 -0.0932 0.0000
vn -0.8861 -0.4634 -0.0000
vn -0.7146 -0.6995 -0.0000
vn 0.0219 0.1292 0.9914
vn 0.0459 0.1420 0.9888
vn 0.0080 0.1739 0.9847
vn -0.0844 0.1142 0.9899
vn -0.9442 0.3295 0.0000
vn 0.0115 0.1183 -0.9929
vn -0.0049 0.1357 -0.9907
vn 0.8510 0.5251 -0.0000
vn 0.9364 0.3511 -0.0000
vn -0.1755 0.3478 -0.9210
vn -0.5080 0.8613 0.0000
vn 0.6195 0.7850 0.0000
vn -0.1755 0.3478 0.9210
vn -0.0049 0.1357 0.9907
vn -0.9923 -0.1240 0.0000
vn -0.9482 -0.3178 0.0000
vn 0.0000 0.1116 -0.9938
vn 0.0256 0.1197 -0.9925
vn 0.9844 0.1761 0.0000
vn 0.9938 0.1116 0.0000
vn -0.0049 0.1172 -0.9931
vn 0.9645 0.2642 -0.0000
vn -0.9938 0.1116 0.0000
vn -0.9987 0.0507 0.0000
vn -0.9993 -0.0378 -0.0000
vn -0.9892 -0.1467 -0.0000
vn 0.0000 0.1116 0.9938
vn 0.0256 0.1197 0.9925
vn -0.0049 0.1172 0.9931
vn 0.0115 0.1183 0.9929
vn -0.0121 0.1045 -0.9944
vn -0.0374 0.1069 -0.9936
vn 0.6347 0.7728 0.0000
vn 0.7947 0.6070 -0.0000
vn -0.2680 0.2265 -0.9364
vn -0.7997 0.6004 -0.0000
vn 0.3090 0.9511 -0.0000
vn -0.2680 0.2265 0.9364
vn -0.0374 0.1069 0.9936
vn -0.8573 -0.5147 -0.0000
vn -0.7921 -0.6105 -0.0000
vn 0.0243 0.1008 -0.9946
vn 0.0162 0.1089 -0.9939
vn 0.9742 0.2258 0.0000
vn 0.9873 0.1592 0.0000
vn 0.0243 0.1087 -0.9938
vn 0.9107 0.4131 0.0000
vn -0.9993 0.0385 0.0000
vn -0.9998 -0.0198 0.0000
vn -0.9775 -0.2110 0.0000
vn -0.8947 -0.4466 -0.0000
vn 0.0243 0.1008 0.9946
vn 0.0162 0.1089 0.9939
vn 0.0243 0.1087 0.9938
vn -0.0121 0.1045 0.9944
usemtl Grass.001
s 1
f 1/1/1 2/2/2 3/3/3 4/4/4
f 2/2/2 5/5/5 6/6/6 3/3/3
f 5/5/5 7/7/7 8/8/8 6/6/6
f 9/9/9 8/10/8 4/4/4 10/11/10
f 11/12/11 12/13/12 13/14/13 14/15/14
f 12/13/12 15/16/15 16/17/16 13/14/13
f 15/16/15 9/9/9 10/11/10 16/17/16
f 17/18/17 18/19/18 12/20/12 11/21/11
f 18/19/18 19/22/19 15/23/15 12/20/12
f 19/22/19 20/24/20 9/25/9 15/23/15
f 20/24/20 6/6/6 8/8/8 9/25/9
f 21/26/21 22/27/22 18/19/18 17/18/17
f 22/27/22 23/28/23 19/22/19 18/19/18
f 23/28/23 24/29/24 20/24/20 19/22/19
f 24/29/24 3/3/3 6/6/6 20/24/20
f 14/15/14 13/14/13 22/27/22 21/26/21
f 13/14/13 16/17/16 23/28/23 22/27/22
f 16/17/16 10/11/10 24/29/24 23/28/23
f 10/11/10 4/4/4 3/3/3 24/29/24
f 2/2/2 25/30/25 5/5/5
f 1/1/1 25/30/25 2/2/2
f 7/7/7 25/30/25 1/1/1
f 7/31/7 1/1/1 4/4/4 8/10/8
f 5/5/5 25/30/25 7/7/7
usemtl Grass.002
f 26/32/26 27/33/27 28/34/28 29/35/29
f 30/36/30 31/37/31 32/38/32
f 33/39/33 34/40/34 28/34/28 32/38/32
f 35/41/35 36/42/36 34/40/34 33/39/33
f 37/43/37 38/44/38 39/45/39 40/46/40
f 38/44/38 41/47/41 42/48/42 39/45/39
f 41/47/41 26/32/26 29/35/29 42/48/42
f 43/49/43 44/50/44 38/51/38 37/52/37
f 44/50/44 45/53/45 41/54/41 38/51/38
f 45/53/45 46/55/46 26/56/26 41/54/41
f 46/55/46 36/42/36 27/57/27 26/56/26
f 47/58/47 48/59/48 44/50/44 43/49/43
f 48/59/48 49/60/49 45/53/45 44/50/44
f 49/60/49 50/61/50 46/55/46 45/53/45
f 50/61/50 34/40/34 36/42/36 46/55/46
f 40/46/40 39/45/39 48/59/48 47/58/47
f 39/45/39 42/48/42 49/60/49 48/59/48
f 42/48/42 29/35/29 50/61/50 49/60/49
f 29/35/29 28/34/28 34/40/34 50/61/50
f 30/62/30 27/57/27 36/42/36 35/41/35
f 31/37/31 30/62/30 35/41/35
f 31/37/31 35/41/35 33/39/33
f 31/37/31 33/39/33 32/38/32
f 27/33/27 30/36/30 32/38/32 28/34/28
usemtl Grass.003
f 51/63/51 52/64/52 53/65/53 54/66/54
f 55/67/55 56/68/56 57/69/57
f 58/70/58 59/71/59 53/65/53 57/69/57
f 60/72/60 61/73/61 59/71/59 58/70/58
f 62/74/62 63/75/63 64/76/64 65/77/65
f 63/75/63 66/78/66 67/79/67 64/76/64
f 66/78/66 51/63/51 54/66/54 67/79/67
f 68/80/68 69/81/69 63/82/63 62/83/62
f 69/81/69 70/84/70 66/85/66 63/82/63
f 70/84/70 71/86/71 51/87/51 66/85/66
f 71/86/71 61/73/61 52/88/52 51/87/51
f 72/89/72 73/90/73 69/81/69 68/80/68
f 73/90/73 74/91/74 70/84/70 69/81/69
f 74/91/74 75/92/75 71/86/71 70/84/70
f 75/92/75 59/71/59 61/73/61 71/86/71
f 65/77/65 64/76/64 73/90/73 72/89/72
f 64/76/64 67/79/67 74/91/74 73/90/73
f 67/79/67 54/66/54 75/92/75 74/91/74
f 54/66/54 53/65/53 59/71/59 75/92/75
f 55/93/55 52/88/52 61/73/61 60/72/60
f 56/68/56 55/93/55 60/72/60
f 56/68/56 60/72/60 58/70/58
f 56/68/56 58/70/58 57/69/57
f 52/64/52 55/67/55 57/69/57 53/65/53
