# Blender v2.83.4 OBJ File: ''
# www.blender.org
mtllib rock-3.mtl
o Rock_Sphere.003
v 0.014838 0.088482 -0.077334
v 0.011159 0.030982 -0.125878
v 0.038847 0.001252 -0.098326
v 0.059396 0.087995 -0.025760
v 0.097774 0.055570 -0.048486
v 0.086121 0.001252 -0.039465
v 0.053346 0.082120 0.055116
v 0.054567 0.043964 0.067919
v 0.064449 0.001252 0.032842
v -0.003233 0.086903 0.099839
v 0.012637 0.048355 0.122962
v 0.012637 0.001252 0.087815
v 0.012637 -0.010096 0.002962
v 0.007822 0.114697 0.025239
v -0.061397 0.085457 0.063917
v -0.086627 0.042703 0.074379
v -0.060848 0.001252 0.045388
v -0.058252 0.078568 -0.043273
v -0.092765 0.030982 -0.065878
v -0.060848 0.001252 -0.039465
vt 0.583333 0.000000
vt 0.666667 0.250000
vt 0.500000 0.250000
vt 0.666667 0.500000
vt 0.666667 0.750000
vt 0.500000 0.750000
vt 0.500000 0.500000
vt 0.583333 1.000000
vt 0.416667 0.000000
vt 0.333333 0.250000
vt 0.333333 0.750000
vt 0.333333 0.500000
vt 0.416667 1.000000
vt 0.250000 0.000000
vt 0.166667 0.250000
vt 0.166667 0.750000
vt 0.166667 0.500000
vt 0.250000 1.000000
vt 0.083333 0.000000
vt 0.000000 0.250000
vt 0.000000 0.750000
vt 0.000000 0.500000
vt 0.083333 1.000000
vt 0.916667 0.000000
vt 1.000000 0.250000
vt 0.833333 0.250000
vt 1.000000 0.500000
vt 1.000000 0.750000
vt 0.833333 0.750000
vt 0.833333 0.500000
vt 0.916667 1.000000
vt 0.750000 1.000000
vt 0.750000 0.000000
vn 0.0128 -0.9998 0.0154
vn 0.3226 -0.7341 -0.5975
vn 0.7602 -0.6341 -0.1414
vn -0.0067 -0.0555 -0.9984
vn 0.0481 0.8242 -0.5643
vn 0.6189 0.7720 -0.1449
vn 0.9218 0.2639 -0.2838
vn 0.0611 0.9961 0.0628
vn 0.6690 -0.6706 0.3204
vn 0.6767 0.6418 0.3608
vn 0.8349 0.0511 0.5480
vn 0.1613 -0.7918 0.5891
vn 0.0270 0.7040 0.7096
vn 0.2161 -0.0415 0.9755
vn -0.4667 -0.8404 0.2753
vn -0.5918 0.7287 0.3446
vn -0.8368 -0.0679 0.5433
vn -0.4415 -0.8789 -0.1807
vn -0.5591 0.7612 -0.3285
vn -0.8617 -0.0939 -0.4986
usemtl Material.003
s 1
f 13/1/1 3/2/2 6/3/3
f 2/4/4 1/5/5 4/6/6 5/7/7
f 3/2/2 2/4/4 5/7/7 6/3/3
f 1/5/5 14/8/8 4/6/6
f 13/9/1 6/3/3 9/10/9
f 5/7/7 4/6/6 7/11/10 8/12/11
f 6/3/3 5/7/7 8/12/11 9/10/9
f 4/6/6 14/13/8 7/11/10
f 13/14/1 9/10/9 12/15/12
f 8/12/11 7/11/10 10/16/13 11/17/14
f 9/10/9 8/12/11 11/17/14 12/15/12
f 7/11/10 14/18/8 10/16/13
f 13/19/1 12/15/12 17/20/15
f 11/17/14 10/16/13 15/21/16 16/22/17
f 12/15/12 11/17/14 16/22/17 17/20/15
f 10/16/13 14/23/8 15/21/16
f 13/24/1 17/25/15 20/26/18
f 16/27/17 15/28/16 18/29/19 19/30/20
f 17/25/15 16/27/17 19/30/20 20/26/18
f 15/28/16 14/31/8 18/29/19
f 18/29/19 14/32/8 1/5/5
f 13/33/1 20/26/18 3/2/2
f 19/30/20 18/29/19 1/5/5 2/4/4
f 20/26/18 19/30/20 2/4/4 3/2/2
