# Blender v2.83.4 OBJ File: ''
# www.blender.org
mtllib rock-1.mtl
o Rock_Sphere
v 0.094734 0.096765 -0.040878
v 0.126459 0.044406 -0.056005
v 0.078914 -0.002841 -0.029045
v 0.072243 0.100580 0.055545
v 0.101206 0.063036 0.075457
v 0.072243 -0.002841 0.055545
v -0.019436 0.092165 0.077294
v -0.026632 0.065667 0.123713
v -0.004349 -0.002841 0.092063
v -0.090898 0.112570 0.035917
v -0.105997 0.044262 0.059118
v -0.074271 -0.002841 0.043992
v 0.002321 -0.014189 0.007473
v -0.014305 0.129497 -0.000602
v -0.084228 0.112570 -0.048673
v -0.106389 0.053510 -0.070506
v -0.067601 -0.002841 -0.040599
v 0.017739 0.082813 -0.100373
v 0.027575 0.044406 -0.123989
v 0.008992 -0.002841 -0.077117
vt 0.583333 0.000000
vt 0.666667 0.250000
vt 0.500000 0.250000
vt 0.666667 0.500000
vt 0.666667 0.750000
vt 0.500000 0.750000
vt 0.500000 0.500000
vt 0.583333 1.000000
vt 0.416667 0.000000
vt 0.333333 0.250000
vt 0.333333 0.750000
vt 0.333333 0.500000
vt 0.416667 1.000000
vt 0.250000 0.000000
vt 0.166667 0.250000
vt 0.166667 0.750000
vt 0.166667 0.500000
vt 0.250000 1.000000
vt 0.083333 0.000000
vt 0.000000 0.250000
vt 0.000000 0.750000
vt 0.000000 0.500000
vt 0.083333 1.000000
vt 0.916667 0.000000
vt 1.000000 0.250000
vt 0.833333 0.250000
vt 1.000000 0.500000
vt 1.000000 0.750000
vt 0.833333 0.750000
vt 0.833333 0.500000
vt 0.916667 1.000000
vt 0.750000 1.000000
vt 0.750000 0.000000
vn 0.0000 -1.0000 0.0000
vn 0.4965 -0.8525 -0.1632
vn 0.4876 -0.7654 0.4200
vn 0.9141 -0.0710 -0.3991
vn 0.5660 0.7786 -0.2709
vn 0.4190 0.8340 0.3590
vn 0.7773 0.1324 0.6150
vn 0.0448 0.9989 0.0102
vn -0.0089 -0.7512 0.6600
vn -0.0902 0.7924 0.6033
vn -0.1662 0.1334 0.9770
vn -0.5256 -0.8064 0.2709
vn -0.6020 0.7433 0.2916
vn -0.8804 -0.0884 0.4659
vn -0.4704 -0.8267 -0.3086
vn -0.5469 0.7343 -0.4020
vn -0.8086 -0.0929 -0.5809
vn -0.0026 -0.8538 -0.5205
vn 0.0711 0.6812 -0.7286
vn 0.1462 -0.1188 -0.9821
usemtl Material.001
s 1
f 13/1/1 3/2/2 6/3/3
f 2/4/4 1/5/5 4/6/6 5/7/7
f 3/2/2 2/4/4 5/7/7 6/3/3
f 1/5/5 14/8/8 4/6/6
f 13/9/1 6/3/3 9/10/9
f 5/7/7 4/6/6 7/11/10 8/12/11
f 6/3/3 5/7/7 8/12/11 9/10/9
f 4/6/6 14/13/8 7/11/10
f 13/14/1 9/10/9 12/15/12
f 8/12/11 7/11/10 10/16/13 11/17/14
f 9/10/9 8/12/11 11/17/14 12/15/12
f 7/11/10 14/18/8 10/16/13
f 13/19/1 12/15/12 17/20/15
f 11/17/14 10/16/13 15/21/16 16/22/17
f 12/15/12 11/17/14 16/22/17 17/20/15
f 10/16/13 14/23/8 15/21/16
f 13/24/1 17/25/15 20/26/18
f 16/27/17 15/28/16 18/29/19 19/30/20
f 17/25/15 16/27/17 19/30/20 20/26/18
f 15/28/16 14/31/8 18/29/19
f 18/29/19 14/32/8 1/5/5
f 13/33/1 20/26/18 3/2/2
f 19/30/20 18/29/19 1/5/5 2/4/4
f 20/26/18 19/30/20 2/4/4 3/2/2
