# Blender v2.83.4 OBJ File: ''
# www.blender.org
mtllib rock-2.mtl
o Rock_Sphere.001
v -0.000866 0.097474 -0.101613
v -0.000866 0.045114 -0.111444
v 0.003007 -0.002132 -0.082240
v 0.049827 0.142950 -0.039836
v 0.088296 0.121276 -0.053398
v 0.076491 -0.002132 -0.039814
v 0.030002 0.134535 0.036639
v 0.076837 0.123907 0.067123
v 0.076491 -0.002132 0.029399
v -0.028107 0.105626 0.080046
v 0.000205 0.043633 0.106060
v 0.003007 -0.002132 0.071825
v 0.003007 -0.013481 -0.013028
v -0.014693 0.116597 -0.001495
v -0.095071 0.072873 0.047894
v -0.109197 0.027893 0.057370
v -0.070478 -0.002132 0.029399
v -0.083833 0.060564 -0.054321
v -0.096859 0.015483 -0.064434
v -0.070478 -0.002132 -0.039814
vt 0.583333 0.000000
vt 0.666667 0.250000
vt 0.500000 0.250000
vt 0.666667 0.500000
vt 0.666667 0.750000
vt 0.500000 0.750000
vt 0.500000 0.500000
vt 0.583333 1.000000
vt 0.416667 0.000000
vt 0.333333 0.250000
vt 0.333333 0.750000
vt 0.333333 0.500000
vt 0.416667 1.000000
vt 0.250000 0.000000
vt 0.166667 0.250000
vt 0.166667 0.750000
vt 0.166667 0.500000
vt 0.250000 1.000000
vt 0.083333 0.000000
vt 0.000000 0.250000
vt 0.000000 0.750000
vt 0.000000 0.500000
vt 0.083333 1.000000
vt 0.916667 0.000000
vt 1.000000 0.250000
vt 0.833333 0.250000
vt 1.000000 0.500000
vt 1.000000 0.750000
vt 0.833333 0.750000
vt 0.833333 0.500000
vt 0.916667 1.000000
vt 0.750000 1.000000
vt 0.750000 0.000000
vn 0.0000 -0.9998 -0.0186
vn 0.1405 -0.7657 -0.6276
vn 0.7129 -0.6250 -0.3182
vn 0.0306 -0.0929 -0.9952
vn -0.1917 0.6380 -0.7458
vn 0.0661 0.9474 -0.3129
vn 0.7907 0.3920 -0.4702
vn -0.4645 0.8814 -0.0862
vn 0.7042 -0.6327 0.3220
vn -0.0610 0.9490 0.3093
vn 0.6633 0.4495 0.5983
vn 0.1223 -0.7949 0.5943
vn -0.3574 0.7017 0.6163
vn 0.0474 -0.1246 0.9911
vn -0.3522 -0.9003 0.2557
vn -0.7620 0.5626 0.3205
vn -0.8247 -0.2587 0.5029
vn -0.3571 -0.9023 -0.2412
vn -0.7364 0.5167 -0.4366
vn -0.7639 -0.3138 -0.5639
usemtl Material.002
s 1
f 13/1/1 3/2/2 6/3/3
f 2/4/4 1/5/5 4/6/6 5/7/7
f 3/2/2 2/4/4 5/7/7 6/3/3
f 1/5/5 14/8/8 4/6/6
f 13/9/1 6/3/3 9/10/9
f 5/7/7 4/6/6 7/11/10 8/12/11
f 6/3/3 5/7/7 8/12/11 9/10/9
f 4/6/6 14/13/8 7/11/10
f 13/14/1 9/10/9 12/15/12
f 8/12/11 7/11/10 10/16/13 11/17/14
f 9/10/9 8/12/11 11/17/14 12/15/12
f 7/11/10 14/18/8 10/16/13
f 13/19/1 12/15/12 17/20/15
f 11/17/14 10/16/13 15/21/16 16/22/17
f 12/15/12 11/17/14 16/22/17 17/20/15
f 10/16/13 14/23/8 15/21/16
f 13/24/1 17/25/15 20/26/18
f 16/27/17 15/28/16 18/29/19 19/30/20
f 17/25/15 16/27/17 19/30/20 20/26/18
f 15/28/16 14/31/8 18/29/19
f 18/29/19 14/32/8 1/5/5
f 13/33/1 20/26/18 3/2/2
f 19/30/20 18/29/19 1/5/5 2/4/4
f 20/26/18 19/30/20 2/4/4 3/2/2
