# Blender v2.92.0 OBJ File: ''
# www.blender.org
o Circle
v 0.000000 0.000000 -1.000000
v -0.195090 0.000000 -0.980785
v -0.382683 0.000000 -0.923880
v -0.555570 0.000000 -0.831470
v -0.707107 0.000000 -0.707107
v -0.831470 0.000000 -0.555570
v -0.923880 0.000000 -0.382683
v -0.980785 0.000000 -0.195090
v -1.000000 0.000000 -0.000000
v -0.980785 0.000000 0.195090
v -0.923880 0.000000 0.382683
v -0.831470 0.000000 0.555570
v -0.707107 0.000000 0.707107
v -0.555570 0.000000 0.831470
v -0.382683 0.000000 0.923880
v -0.195090 0.000000 0.980785
v 0.000000 0.000000 1.000000
v 0.195091 0.000000 0.980785
v 0.382684 0.000000 0.923879
v 0.555571 0.000000 0.831469
v 0.707107 0.000000 0.707106
v 0.831470 0.000000 0.555570
v 0.923880 0.000000 0.382683
v 0.980785 0.000000 0.195089
v 1.000000 0.000000 -0.000001
v 0.980785 0.000000 -0.195091
v 0.923879 0.000000 -0.382684
v 0.831469 0.000000 -0.555571
v 0.707106 0.000000 -0.707108
v 0.555569 0.000000 -0.831470
v 0.382682 0.000000 -0.923880
v 0.195089 0.000000 -0.980786
v -0.185289 0.000000 -0.931509
v 0.000000 0.000000 -0.949758
v -0.363457 0.000000 -0.877462
v -0.527657 0.000000 -0.789695
v -0.671580 0.000000 -0.671580
v -0.789695 0.000000 -0.527657
v -0.877462 0.000000 -0.363457
v -0.931509 0.000000 -0.185289
v -0.949758 0.000000 -0.000000
v -0.931509 0.000000 0.185288
v -0.877462 0.000000 0.363457
v -0.789695 0.000000 0.527657
v -0.671580 0.000000 0.671580
v -0.527657 0.000000 0.789695
v -0.363457 0.000000 0.877462
v -0.185288 0.000000 0.931509
v 0.000000 0.000000 0.949758
v 0.185289 0.000000 0.931509
v 0.363457 0.000000 0.877462
v 0.527658 0.000000 0.789695
v 0.671581 0.000000 0.671580
v 0.789695 0.000000 0.527657
v 0.877462 0.000000 0.363456
v 0.931509 0.000000 0.185288
v 0.949758 0.000000 -0.000001
v 0.931509 0.000000 -0.185290
v 0.877462 0.000000 -0.363458
v 0.789694 0.000000 -0.527658
v 0.671580 0.000000 -0.671581
v 0.527656 0.000000 -0.789696
v 0.363455 0.000000 -0.877463
v 0.185287 0.000000 -0.931509
vt 0.407356 0.965755
vt 0.500000 0.974880
vt 0.500000 1.000000
vt 0.402455 0.990393
vt 0.318272 0.938731
vt 0.308658 0.961940
vt 0.236171 0.894848
vt 0.222215 0.915735
vt 0.164210 0.835790
vt 0.146447 0.853553
vt 0.105153 0.763829
vt 0.084265 0.777785
vt 0.061269 0.681729
vt 0.038060 0.691342
vt 0.034246 0.592644
vt 0.009607 0.597545
vt 0.025121 0.500000
vt 0.000000 0.500000
vt 0.034246 0.407356
vt 0.009607 0.402455
vt 0.061269 0.318272
vt 0.038060 0.308658
vt 0.105153 0.236171
vt 0.084265 0.222215
vt 0.164210 0.164210
vt 0.146447 0.146447
vt 0.236171 0.105153
vt 0.222215 0.084265
vt 0.318272 0.061269
vt 0.308658 0.038060
vt 0.407356 0.034246
vt 0.402455 0.009607
vt 0.500000 0.025121
vt 0.500000 0.000000
vt 0.592645 0.034246
vt 0.597545 0.009607
vt 0.681729 0.061269
vt 0.691342 0.038060
vt 0.763829 0.105153
vt 0.777785 0.084265
vt 0.835790 0.164210
vt 0.853554 0.146447
vt 0.894848 0.236172
vt 0.915735 0.222215
vt 0.938731 0.318272
vt 0.961940 0.308659
vt 0.965754 0.407356
vt 0.990393 0.402455
vt 0.974879 0.500000
vt 1.000000 0.500000
vt 0.965754 0.592645
vt 0.990393 0.597546
vt 0.938731 0.681729
vt 0.961940 0.691342
vt 0.894847 0.763829
vt 0.915734 0.777786
vt 0.835790 0.835791
vt 0.853553 0.853554
vt 0.763828 0.894848
vt 0.777785 0.915735
vt 0.681728 0.938731
vt 0.691341 0.961940
vt 0.592644 0.965755
vt 0.597544 0.990393
vn 0.0000 1.0000 0.0000
s off
f 33/1/1 34/2/1 1/3/1 2/4/1
f 35/5/1 33/1/1 2/4/1 3/6/1
f 36/7/1 35/5/1 3/6/1 4/8/1
f 37/9/1 36/7/1 4/8/1 5/10/1
f 38/11/1 37/9/1 5/10/1 6/12/1
f 39/13/1 38/11/1 6/12/1 7/14/1
f 40/15/1 39/13/1 7/14/1 8/16/1
f 41/17/1 40/15/1 8/16/1 9/18/1
f 42/19/1 41/17/1 9/18/1 10/20/1
f 43/21/1 42/19/1 10/20/1 11/22/1
f 44/23/1 43/21/1 11/22/1 12/24/1
f 45/25/1 44/23/1 12/24/1 13/26/1
f 46/27/1 45/25/1 13/26/1 14/28/1
f 47/29/1 46/27/1 14/28/1 15/30/1
f 48/31/1 47/29/1 15/30/1 16/32/1
f 49/33/1 48/31/1 16/32/1 17/34/1
f 50/35/1 49/33/1 17/34/1 18/36/1
f 51/37/1 50/35/1 18/36/1 19/38/1
f 52/39/1 51/37/1 19/38/1 20/40/1
f 53/41/1 52/39/1 20/40/1 21/42/1
f 54/43/1 53/41/1 21/42/1 22/44/1
f 55/45/1 54/43/1 22/44/1 23/46/1
f 56/47/1 55/45/1 23/46/1 24/48/1
f 57/49/1 56/47/1 24/48/1 25/50/1
f 58/51/1 57/49/1 25/50/1 26/52/1
f 59/53/1 58/51/1 26/52/1 27/54/1
f 60/55/1 59/53/1 27/54/1 28/56/1
f 61/57/1 60/55/1 28/56/1 29/58/1
f 62/59/1 61/57/1 29/58/1 30/60/1
f 63/61/1 62/59/1 30/60/1 31/62/1
f 64/63/1 63/61/1 31/62/1 32/64/1
f 34/2/1 64/63/1 32/64/1 1/3/1
